<svg width="81" height="22" viewBox="0 0 81 22" fill="none" xmlns="http://www.w3.org/2000/svg">
<path fill-rule="evenodd" clip-rule="evenodd" d="M9.16946 1.17383C14.1541 1.17384 18.2097 5.15016 18.3359 10.1028L18.343 10.1026L18.2766 19.5071H9.23288C9.21173 19.5072 9.19064 19.5071 9.16946 19.5071C4.10531 19.5071 1.45604e-05 15.4031 0 10.3405C6.0307e-05 5.27797 4.10533 1.17383 9.16946 1.17383ZM5.89817 10.342L9.17536 13.6191L12.4526 10.342L9.17536 7.06477L5.89817 10.342Z" fill="#FFC233"/>
<path d="M26.3611 17V4.4765H28.8068V14.7862H34.183L34.0144 17H26.3611ZM44.8798 12.3617C44.8798 13.2893 44.662 14.1186 44.2263 14.8495C43.7905 15.5663 43.2002 16.1356 42.4553 16.5572C41.7103 16.9649 40.86 17.1687 39.9042 17.1687C38.9625 17.1687 38.1121 16.9649 37.3531 16.5572C36.6082 16.1356 36.0178 15.5663 35.5821 14.8495C35.1464 14.1186 34.9285 13.2893 34.9285 12.3617C34.9285 11.4199 35.1464 10.5907 35.5821 9.87383C36.0178 9.157 36.6082 8.59478 37.3531 8.18717C38.1121 7.7655 38.9625 7.55467 39.9042 7.55467C40.86 7.55467 41.7103 7.7655 42.4553 8.18717C43.2002 8.59478 43.7905 9.157 44.2263 9.87383C44.662 10.5907 44.8798 11.4199 44.8798 12.3617ZM42.4342 12.3617C42.4342 11.8135 42.3217 11.3356 42.0968 10.928C41.872 10.5204 41.5698 10.2041 41.1903 9.97925C40.8108 9.7403 40.3821 9.62083 39.9042 9.62083C39.4403 9.62083 39.0117 9.7403 38.6181 9.97925C38.2386 10.2041 37.9364 10.5204 37.7115 10.928C37.4866 11.3356 37.3742 11.8135 37.3742 12.3617C37.3742 12.9098 37.4866 13.3877 37.7115 13.7953C37.9364 14.2029 38.2386 14.5262 38.6181 14.7652C39.0117 14.9901 39.4403 15.1025 39.9042 15.1025C40.3961 15.1025 40.8318 14.9901 41.2113 14.7652C41.5908 14.5262 41.886 14.2029 42.0968 13.7953C42.3217 13.3877 42.4342 12.9098 42.4342 12.3617ZM55.2239 7.7655L51.7662 11.6448L55.4347 17H52.6939L49.9741 13.2893L48.7724 14.6387V17H46.411V3.73858L48.7724 3.63317V12.3827H48.8567C49.0113 12.0876 49.2151 11.7643 49.4681 11.4129C49.7211 11.0475 50.0092 10.6539 50.3325 10.2322L52.6517 7.68117L55.2239 7.7655ZM64.4633 17H62.2285V16.2621C61.8771 16.5151 61.4484 16.7329 60.9424 16.9157C60.4504 17.0843 59.9163 17.1687 59.3401 17.1687C58.2999 17.1687 57.5058 16.9297 56.9576 16.4518C56.4095 15.9599 56.1354 15.2782 56.1354 14.4067C56.1354 13.465 56.4727 12.7552 57.1474 12.2773C57.8221 11.7994 58.7146 11.5605 59.825 11.5605C60.2466 11.5605 60.6753 11.6027 61.1111 11.687C61.5468 11.7713 61.8982 11.8697 62.1652 11.9822V11.3075C62.1652 10.7031 61.9755 10.2744 61.596 10.0214C61.2305 9.75436 60.6683 9.62083 59.9093 9.62083C59.3752 9.62083 58.8411 9.69111 58.307 9.83167C57.7729 9.95817 57.3371 10.1198 56.9998 10.3166L56.9155 8.25042C57.3371 8.02553 57.8361 7.85686 58.4124 7.74442C59.0027 7.61792 59.6141 7.55467 60.2466 7.55467C61.61 7.55467 62.6501 7.84281 63.367 8.41908C64.0979 8.99536 64.4633 9.90897 64.4633 11.1599V17ZM62.1652 14.9549V13.4158C61.9403 13.3034 61.6592 13.2191 61.3219 13.1628C60.9986 13.0926 60.6824 13.0574 60.3731 13.0574C59.7828 13.0574 59.319 13.1628 58.9816 13.3737C58.6584 13.5845 58.4967 13.9218 58.4967 14.3857C58.4967 14.8073 58.6373 15.1166 58.9184 15.3133C59.1995 15.4961 59.5931 15.5874 60.0991 15.5874C60.4786 15.5874 60.8581 15.5242 61.2376 15.3977C61.6311 15.2712 61.9403 15.1236 62.1652 14.9549ZM68.9704 3.63317V17H66.609V3.73858L68.9704 3.63317Z" fill="white"/>
</svg>
