<svg width="40" height="40" viewBox="0 0 40 40" fill="none" xmlns="http://www.w3.org/2000/svg">
<path d="M27.8737 30.3346H12.1237C10.1018 30.3346 8.44957 28.7521 8.33803 26.7581L8.33203 26.543V14.293C8.33203 12.9036 9.41138 11.7664 10.7773 11.674L10.957 11.668H25.5404C26.9297 11.668 28.0669 12.7473 28.1593 14.1132L28.1654 14.293V15.168H29.0404C30.4297 15.168 31.5669 16.2473 31.6593 17.6132L31.6654 17.793V26.543C31.6654 28.5648 30.0828 30.217 28.0888 30.3287L27.8737 30.3346ZM12.1237 28.5846H27.8737C28.9449 28.5846 29.8234 27.7597 29.9086 26.7104L29.9154 26.543V17.793C29.9154 17.35 29.5861 16.9839 29.1591 16.926L29.0404 16.918H28.1654V25.9596C28.1654 26.4026 27.8361 26.7687 27.4091 26.8267L27.2904 26.8346C26.8474 26.8346 26.4813 26.5054 26.4233 26.0784L26.4154 25.9596V14.293C26.4154 13.85 26.0861 13.4839 25.6591 13.426L25.5404 13.418H10.957C10.5141 13.418 10.148 13.7471 10.09 14.1742L10.082 14.293V26.543C10.082 27.6142 10.907 28.4927 11.9563 28.5779L12.1237 28.5846ZM20.2857 23.918H23.7929C24.2763 23.918 24.6679 24.3097 24.6679 24.793C24.6679 25.236 24.3388 25.6021 23.9117 25.66L23.7929 25.668H20.2857C19.8025 25.668 19.4107 25.2762 19.4107 24.793C19.4107 24.35 19.7399 23.9839 20.1669 23.9259L20.2857 23.918ZM16.7825 19.8399C17.2658 19.8399 17.6575 20.2317 17.6575 20.7149V24.793C17.6575 25.2762 17.2658 25.668 16.7825 25.668H12.7044C12.2212 25.668 11.8294 25.2762 11.8294 24.793V20.7149C11.8294 20.2317 12.2212 19.8399 12.7044 19.8399H16.7825ZM15.9075 21.5899H13.5794V23.918H15.9075V21.5899ZM20.2857 19.8399H23.7929C24.2763 19.8399 24.6679 20.2317 24.6679 20.7149C24.6679 21.1579 24.3388 21.524 23.9117 21.5818L23.7929 21.5899H20.2857C19.8025 21.5899 19.4107 21.1981 19.4107 20.7149C19.4107 20.2719 19.7399 19.9058 20.1669 19.8478L20.2857 19.8399ZM12.7044 15.7542H23.7929C24.2763 15.7542 24.6679 16.1459 24.6679 16.6292C24.6679 17.0722 24.3388 17.4383 23.9117 17.4962L23.7929 17.5042H12.7044C12.2212 17.5042 11.8294 17.1124 11.8294 16.6292C11.8294 16.1862 12.1586 15.8201 12.5857 15.7622L12.7044 15.7542Z" fill="white"/>
</svg>
