<svg width="40" height="40" viewBox="0 0 40 40" fill="none" xmlns="http://www.w3.org/2000/svg">
<path d="M20 9.5C20.4752 9.5 20.943 9.53333 21.4023 9.5918C21.6388 9.62198 21.873 9.65813 22.1045 9.70312C27.1727 10.6852 31 15.1447 31 20.5C31 26.5751 26.0751 31.5 20 31.5C17.9576 31.5 16.0462 30.9415 14.4072 29.9717L10.1416 31.3945C9.8385 31.4954 9.50422 31.4164 9.27832 31.1904C9.05242 30.9646 8.97332 30.6302 9.07422 30.3271L10.501 26.0459C9.54811 24.4174 9 22.523 9 20.5C9 15.1451 12.8267 10.6856 17.8945 9.70312C18.1263 9.65805 18.3609 9.62202 18.5977 9.5918C19.057 9.53333 19.5248 9.5 20 9.5Z" fill="white"/>
<path d="M20 31.5C26.0751 31.5 31 26.5751 31 20.5C31 14.4249 26.0751 9.5 20 9.5C13.9249 9.5 9 14.4249 9 20.5C9 26.5751 13.9249 31.5 20 31.5Z" fill="#807B7B"/>
<path d="M20 31.5C26.0751 31.5 31 26.5751 31 20.5C31 14.4249 26.0751 9.5 20 9.5C13.9249 9.5 9 14.4249 9 20.5C9 26.5751 13.9249 31.5 20 31.5Z" fill="white"/>
<path fill-rule="evenodd" clip-rule="evenodd" d="M13.5298 18.7671C13.8236 17.6664 14.4026 16.626 15.2643 15.7643C16.126 14.9026 17.1664 14.3236 18.2671 14.0298C18.7332 13.9053 19.2121 14.1823 19.3365 14.6485C19.4609 15.1146 19.1839 15.5933 18.7177 15.7178C17.9059 15.9345 17.1384 16.361 16.4997 16.9997C15.861 17.6384 15.4345 18.4059 15.2178 19.2177C15.0933 19.6839 14.6146 19.9608 14.1485 19.8365C13.6823 19.7121 13.4053 19.2332 13.5298 18.7671ZM20.6636 14.6485C20.788 14.1823 21.2668 13.9053 21.7329 14.0298C22.8336 14.3236 23.874 14.9026 24.7358 15.7643C25.5974 16.626 26.1764 17.6664 26.4702 18.7671C26.5947 19.2332 26.3177 19.7121 25.8516 19.8365C25.3855 19.9608 24.9066 19.6839 24.7822 19.2177C24.5655 18.4059 24.1391 17.6384 23.5003 16.9997C22.8616 16.361 22.0941 15.9345 21.2823 15.7178C20.8162 15.5933 20.5392 15.1146 20.6636 14.6485ZM14.1485 21.1636C14.6146 21.0392 15.0933 21.3161 15.2178 21.7823C15.4345 22.5941 15.861 23.3616 16.4997 24.0003C17.1384 24.6391 17.9059 25.0655 18.7177 25.2822C19.1839 25.4066 19.4609 25.8855 19.3365 26.3516C19.2121 26.8177 18.7332 27.0947 18.2671 26.9703C17.1664 26.6764 16.126 26.0974 15.2643 25.2358C14.4026 24.374 13.8236 23.3336 13.5298 22.2329C13.4053 21.7668 13.6823 21.288 14.1485 21.1636ZM20.6636 26.3516C20.5392 25.8855 20.8162 25.4066 21.2823 25.2822C22.0941 25.0655 22.8616 24.6391 23.5003 24.0003C24.1391 23.3616 24.5655 22.5941 24.7822 21.7823C24.9066 21.3161 25.3855 21.0392 25.8516 21.1636C26.3177 21.288 26.5947 21.7668 26.4702 22.2329C26.1764 23.3336 25.5974 24.374 24.7358 25.2358C23.874 26.0974 22.8336 26.6764 21.7329 26.9703C21.2668 27.0947 20.788 26.8177 20.6636 26.3516Z" fill="black"/>
</svg>
