<svg width="40" height="40" viewBox="0 0 40 40" fill="none" xmlns="http://www.w3.org/2000/svg">
<g clip-path="url(#clip0_2690_69920)">
<path d="M19.9997 9.24512C24.5559 9.24512 28.276 12.8392 28.4325 17.4003L28.4372 17.6826V22.2918L29.9897 25.8423C30.0675 26.0199 30.1075 26.2117 30.1075 26.4057C30.1075 27.1822 29.478 27.8119 28.7013 27.8119L23.3747 27.8136C23.3747 29.6775 21.8637 31.1886 19.9997 31.1886C18.2023 31.1886 16.7331 29.7835 16.6305 28.0118L16.6242 27.811L11.309 27.8119C11.1162 27.8119 10.9255 27.7722 10.7487 27.6955C10.0363 27.386 9.7097 26.5578 10.0191 25.8454L11.5622 22.2928V17.6825C11.5629 13.0084 15.3333 9.24512 19.9997 9.24512ZM21.6868 27.811L18.3122 27.8136C18.3122 28.7455 19.0678 29.5011 19.9997 29.5011C20.8769 29.5011 21.5978 28.8318 21.6795 27.976L21.6868 27.811ZM19.9997 10.9326C16.2646 10.9326 13.2503 13.9412 13.2497 17.6826V22.6434L11.7378 26.1244H28.2713L26.7497 22.6446L26.7498 17.6971L26.7457 17.4437C26.6207 13.8061 23.6465 10.9326 19.9997 10.9326Z" fill="white"/>
<rect x="17.5" y="-1" width="21.5" height="21" rx="10.5" fill="#DE1135"/>
<rect x="17.5" y="-1" width="21.5" height="21" rx="10.5" stroke="black" stroke-width="3"/>
<path d="M24.932 13.5V7.208L22.941 8.594L22.325 7.681L25.262 5.624H26.098V13.5H24.932ZM31.1867 13.676C30.776 13.676 30.402 13.6027 30.0647 13.456C29.7347 13.3093 29.4524 13.1113 29.2177 12.862C28.983 12.6127 28.7997 12.3267 28.6677 12.004C28.543 11.6813 28.4807 11.3477 28.4807 11.003C28.4807 10.5703 28.5577 10.1633 28.7117 9.782C28.8657 9.40067 29.104 8.98267 29.4267 8.528C29.7787 8.01467 30.1344 7.50133 30.4937 6.988C30.853 6.47467 31.2087 5.96133 31.5607 5.448L32.4957 6.108C32.3417 6.32067 32.1877 6.537 32.0337 6.757C31.8797 6.96967 31.7257 7.18233 31.5717 7.395C31.425 7.60767 31.2747 7.82033 31.1207 8.033C30.9667 8.24567 30.8127 8.462 30.6587 8.682L30.7137 8.715C30.7724 8.67833 30.8384 8.64533 30.9117 8.616C30.9924 8.57933 31.084 8.55367 31.1867 8.539C31.2894 8.517 31.3994 8.506 31.5167 8.506C31.8027 8.506 32.085 8.56833 32.3637 8.693C32.6424 8.81767 32.8954 8.99367 33.1227 9.221C33.35 9.441 33.5297 9.70867 33.6617 10.024C33.801 10.332 33.8707 10.6693 33.8707 11.036C33.8707 11.5127 33.746 11.9527 33.4967 12.356C33.2547 12.752 32.932 13.071 32.5287 13.313C32.1254 13.555 31.678 13.676 31.1867 13.676ZM31.1867 12.576C31.4654 12.576 31.7184 12.51 31.9457 12.378C32.173 12.2387 32.3527 12.0517 32.4847 11.817C32.624 11.5823 32.6937 11.3257 32.6937 11.047C32.6937 10.761 32.624 10.5043 32.4847 10.277C32.3527 10.0497 32.173 9.86633 31.9457 9.727C31.7184 9.58767 31.4654 9.518 31.1867 9.518C30.9154 9.518 30.6624 9.58767 30.4277 9.727C30.2004 9.86633 30.017 10.0497 29.8777 10.277C29.7457 10.5043 29.6797 10.761 29.6797 11.047C29.6797 11.3257 29.7457 11.5823 29.8777 11.817C30.017 12.0517 30.2004 12.2387 30.4277 12.378C30.655 12.51 30.908 12.576 31.1867 12.576Z" fill="white"/>
</g>
<defs>
<clipPath id="clip0_2690_69920">
<rect width="40" height="40" fill="white"/>
</clipPath>
</defs>
</svg>
