<svg width="48" height="48" viewBox="0 0 48 48" fill="none" xmlns="http://www.w3.org/2000/svg">
<rect width="48" height="48" rx="24" fill="#25D366"/>
<rect x="1" y="1" width="46" height="46" rx="23" stroke="white" stroke-opacity="0.24" stroke-width="2"/>
<g clip-path="url(#clip0_2692_70123)">
<path d="M24 12C17.3727 12 12 17.3727 12 24C12 26.1803 12.5817 28.225 13.598 29.987L12 36L18.234 34.5263C19.9453 35.4657 21.91 36 24 36C30.6273 36 36 30.6273 36 24C36 17.3727 30.6273 12 24 12ZM24 33.8507C21.9943 33.8507 20.129 33.2513 18.5727 32.2217L14.8897 33.1597L15.9227 29.6393C14.805 28.0417 14.1493 26.0973 14.1493 23.9997C14.1493 18.5593 18.5597 14.149 24 14.149C29.4403 14.149 33.8507 18.5593 33.8507 23.9997C33.8507 29.44 29.4403 33.8503 24 33.8503V33.8507Z" fill="white"/>
<path d="M26.8114 25.5838L29.7147 26.9524C29.8481 27.0151 29.9334 27.1504 29.9214 27.2971C29.8901 27.6791 29.7367 28.4448 29.0504 29.1311C27.1131 31.0684 23.6341 28.8764 23.4924 28.7918C22.6367 28.3321 21.8237 27.7171 21.0527 26.9464C20.2817 26.1758 19.6667 25.3624 19.2071 24.5068C19.1221 24.3654 16.9301 20.8864 18.8677 18.9488C19.5541 18.2624 20.3197 18.1091 20.7017 18.0778C20.8487 18.0658 20.9837 18.1511 21.0464 18.2844L22.4154 21.1878C22.4801 21.3251 22.4517 21.4884 22.3444 21.5958L21.3241 22.6161C21.1034 22.8368 21.0387 23.1804 21.1907 23.4531C21.5631 24.1208 22.0637 24.7638 22.6437 25.3554C23.2354 25.9354 23.8784 26.4364 24.5461 26.8084C24.8187 26.9604 25.1621 26.8958 25.3831 26.6751L26.4034 25.6548C26.5107 25.5474 26.6741 25.5188 26.8114 25.5838Z" fill="white"/>
</g>
<defs>
<clipPath id="clip0_2692_70123">
<rect width="24" height="24" fill="white" transform="translate(12 12)"/>
</clipPath>
</defs>
</svg>
