<svg width="48" height="48" viewBox="0 0 48 48" fill="none" xmlns="http://www.w3.org/2000/svg">
<rect width="48" height="48" rx="24" fill="white" fill-opacity="0.12"/>
<rect x="0.631579" y="0.631579" width="46.7368" height="46.7368" rx="23.3684" stroke="white" stroke-opacity="0.12" stroke-width="1.26316"/>
<g clip-path="url(#clip0_2692_70151)">
<path d="M16.7994 21.6001C15.4794 21.6001 14.3994 22.6801 14.3994 24.0001C14.3994 25.3201 15.4794 26.4001 16.7994 26.4001C18.1194 26.4001 19.1994 25.3201 19.1994 24.0001C19.1994 22.6801 18.1194 21.6001 16.7994 21.6001ZM31.1994 21.6001C29.8794 21.6001 28.7994 22.6801 28.7994 24.0001C28.7994 25.3201 29.8794 26.4001 31.1994 26.4001C32.5194 26.4001 33.5994 25.3201 33.5994 24.0001C33.5994 22.6801 32.5194 21.6001 31.1994 21.6001ZM23.9994 21.6001C22.6794 21.6001 21.5994 22.6801 21.5994 24.0001C21.5994 25.3201 22.6794 26.4001 23.9994 26.4001C25.3194 26.4001 26.3994 25.3201 26.3994 24.0001C26.3994 22.6801 25.3194 21.6001 23.9994 21.6001Z" fill="white"/>
</g>
<defs>
<clipPath id="clip0_2692_70151">
<rect x="9.59961" y="9.6001" width="28.8" height="28.8" fill="white"/>
</clipPath>
</defs>
</svg>
