<svg width="97" height="95" viewBox="0 0 97 95" fill="none" xmlns="http://www.w3.org/2000/svg">
<g filter="url(#filter0_d_3109_16756)">
<rect x="19" y="12" width="52" height="52" rx="26" fill="#25D366"/>
<rect x="20" y="13" width="50" height="50" rx="25" stroke="white" stroke-opacity="0.2" stroke-width="2"/>
<g clip-path="url(#clip0_3109_16756)">
<path d="M44.9997 26.083C38.4184 26.083 33.083 31.4184 33.083 37.9997C33.083 40.1649 33.6606 42.1953 34.6699 43.9451L33.083 49.9163L39.2737 48.4529C40.9732 49.3857 42.9242 49.9163 44.9997 49.9163C51.581 49.9163 56.9163 44.581 56.9163 37.9997C56.9163 31.4184 51.581 26.083 44.9997 26.083ZM44.9997 47.7819C43.0079 47.7819 41.1556 47.1868 39.61 46.1642L35.9526 47.0957L36.9784 43.5998C35.8685 42.0133 35.2174 40.0824 35.2174 37.9993C35.2174 32.5968 39.5971 28.2171 44.9997 28.2171C50.4022 28.2171 54.7819 32.5968 54.7819 37.9993C54.7819 43.4019 50.4022 47.7816 44.9997 47.7816V47.7819Z" fill="white"/>
<path d="M47.7917 39.5741L50.6749 40.9333C50.8073 40.9955 50.892 41.1299 50.8801 41.2756C50.849 41.6549 50.6967 42.4153 50.0152 43.0968C48.0913 45.0207 44.6365 42.8439 44.4958 42.7599C43.646 42.3034 42.8387 41.6926 42.073 40.9273C41.3074 40.162 40.6967 39.3543 40.2402 38.5046C40.1558 38.3643 37.979 34.9094 39.9032 32.9852C40.5848 32.3036 41.3451 32.1514 41.7245 32.1203C41.8705 32.1083 42.0045 32.1931 42.0668 32.3255L43.4263 35.2087C43.4905 35.345 43.4623 35.5072 43.3557 35.6138L42.3425 36.6271C42.1234 36.8462 42.0591 37.1875 42.2101 37.4583C42.5798 38.1213 43.077 38.7598 43.653 39.3474C44.2406 39.9234 44.8791 40.4209 45.5421 40.7903C45.8129 40.9412 46.1538 40.877 46.3733 40.6579L47.3866 39.6446C47.4931 39.538 47.6553 39.5096 47.7917 39.5741Z" fill="white"/>
</g>
</g>
<defs>
<filter id="filter0_d_3109_16756" x="-7" y="-9.66667" width="104" height="104" filterUnits="userSpaceOnUse" color-interpolation-filters="sRGB">
<feFlood flood-opacity="0" result="BackgroundImageFix"/>
<feColorMatrix in="SourceAlpha" type="matrix" values="0 0 0 0 0 0 0 0 0 0 0 0 0 0 0 0 0 0 127 0" result="hardAlpha"/>
<feOffset dy="4.33333"/>
<feGaussianBlur stdDeviation="13"/>
<feComposite in2="hardAlpha" operator="out"/>
<feColorMatrix type="matrix" values="0 0 0 0 0 0 0 0 0 0 0 0 0 0 0 0 0 0 0.3 0"/>
<feBlend mode="normal" in2="BackgroundImageFix" result="effect1_dropShadow_3109_16756"/>
<feBlend mode="normal" in="SourceGraphic" in2="effect1_dropShadow_3109_16756" result="shape"/>
</filter>
<clipPath id="clip0_3109_16756">
<rect width="23.8333" height="23.8333" fill="white" transform="translate(33.083 26.083)"/>
</clipPath>
</defs>
</svg>
