<svg width="52" height="52" viewBox="26 12 52 52" fill="none" xmlns="http://www.w3.org/2000/svg">
<g filter="url(#filter0_d_3109_16771)">
<rect x="26" y="12" width="52" height="52" rx="26" fill="#25D366"/>
<rect x="26" y="12" width="52" height="52" rx="26" fill="url(#paint0_radial_3109_16771)"/>
<rect x="26" y="12" width="52" height="52" rx="26" fill="url(#paint1_radial_3109_16771)"/>
<rect x="27" y="13" width="50" height="50" rx="25" stroke="white" stroke-opacity="0.2" stroke-width="2"/>
<g clip-path="url(#clip0_3109_16771)">
<path d="M46.6159 25.0909C45.2327 25.1562 44.2882 25.3769 43.4624 25.7014C42.6078 26.0345 41.8834 26.4814 41.1627 27.2047C40.442 27.928 39.9982 28.6529 39.6674 29.5088C39.3474 30.3364 39.1305 31.2818 39.0694 32.6658C39.0083 34.0497 38.9948 34.4946 39.0016 38.0249C39.0083 41.5552 39.0239 41.9977 39.091 43.3845C39.1571 44.7675 39.377 45.7118 39.7015 46.5378C40.0351 47.3924 40.4815 48.1165 41.2051 48.8375C41.9287 49.5585 42.653 50.0013 43.511 50.3325C44.3378 50.652 45.2834 50.8699 46.6672 50.9305C48.0509 50.9911 48.4963 51.0051 52.0255 50.9984C55.5547 50.9916 55.9991 50.976 57.3857 50.9102C58.7722 50.8444 59.7116 50.6229 60.5379 50.3C61.3925 49.9656 62.1171 49.52 62.8376 48.7962C63.5581 48.0723 64.0016 47.3469 64.3321 46.4905C64.6524 45.6637 64.87 44.7181 64.9301 43.3354C64.9907 41.9478 65.005 41.5047 64.9982 37.975C64.9914 34.4452 64.9756 34.0027 64.9098 32.6164C64.844 31.23 64.6238 30.2886 64.2996 29.462C63.9655 28.6074 63.5196 27.8838 62.7963 27.1623C62.0729 26.4408 61.347 25.9975 60.4908 25.6679C59.6635 25.3478 58.7184 25.1297 57.3347 25.0699C55.951 25.0101 55.5056 24.9947 51.9751 25.0015C48.4445 25.0082 48.0025 25.0233 46.6159 25.0909ZM46.7678 48.5918C45.5003 48.5367 44.8121 48.3261 44.3534 48.1498C43.7461 47.9158 43.3134 47.6329 42.8563 47.1803C42.3993 46.7276 42.1185 46.2934 41.8813 45.6873C41.7032 45.2287 41.4887 44.5413 41.4295 43.2738C41.365 41.9038 41.3515 41.4925 41.3439 38.0218C41.3364 34.551 41.3496 34.1402 41.4097 32.7698C41.4638 31.5033 41.6757 30.8143 41.8517 30.3559C42.0857 29.7478 42.3675 29.3159 42.8212 28.8591C43.2749 28.4023 43.7078 28.121 44.3144 27.8838C44.7725 27.705 45.46 27.4923 46.727 27.432C48.0979 27.367 48.5087 27.354 51.979 27.3464C55.4492 27.3389 55.861 27.3519 57.2325 27.4122C58.499 27.4673 59.1882 27.6771 59.6461 27.8542C60.2537 28.0882 60.6861 28.3693 61.1429 28.8237C61.5997 29.2782 61.8813 29.7096 62.1184 30.3174C62.2976 30.7743 62.5103 31.4614 62.5701 32.7292C62.6353 34.1002 62.6501 34.5112 62.6564 37.9812C62.6626 41.4512 62.6504 41.8633 62.5903 43.2332C62.535 44.5007 62.3249 45.1892 62.1483 45.6483C61.9143 46.2554 61.6322 46.6883 61.1783 47.1449C60.7243 47.6015 60.2919 47.8828 59.6851 48.1199C59.2275 48.2985 58.5393 48.5117 57.2733 48.572C55.9024 48.6365 55.4916 48.65 52.02 48.6576C48.5485 48.6651 48.139 48.6511 46.768 48.5918M57.3656 31.0519C57.3662 31.3605 57.4582 31.662 57.63 31.9182C57.8019 32.1745 58.0459 32.374 58.3312 32.4916C58.6165 32.6092 58.9302 32.6396 59.2327 32.5788C59.5352 32.5181 59.813 32.369 60.0307 32.1504C60.2485 31.9318 60.3966 31.6536 60.4562 31.3508C60.5159 31.0481 60.4844 30.7344 60.3657 30.4496C60.2471 30.1647 60.0467 29.9215 59.7898 29.7505C59.5329 29.5796 59.2311 29.4887 58.9225 29.4893C58.5089 29.4902 58.1125 29.6552 57.8205 29.9483C57.5286 30.2413 57.365 30.6383 57.3656 31.0519ZM45.325 38.0129C45.3323 41.6997 48.3265 44.6817 52.0125 44.6746C55.6985 44.6676 58.6825 41.6737 58.6755 37.9869C58.6685 34.3001 55.6736 31.3174 51.987 31.3247C48.3005 31.332 45.318 34.3266 45.325 38.0129ZM47.6666 38.0082C47.6649 37.1512 47.9174 36.3128 48.3922 35.5993C48.8669 34.8857 49.5426 34.329 50.3338 33.9994C51.1249 33.6698 51.9961 33.5823 52.837 33.7478C53.6779 33.9134 54.4509 34.3246 55.0581 34.9294C55.6654 35.5343 56.0796 36.3056 56.2485 37.1458C56.4174 37.9861 56.3333 38.8576 56.0068 39.6501C55.6804 40.4425 55.1263 41.1204 54.4147 41.598C53.703 42.0756 52.8657 42.3314 52.0086 42.3331C51.4395 42.3343 50.8758 42.2234 50.3495 42.0066C49.8233 41.7899 49.3449 41.4717 48.9417 41.0701C48.5385 40.6685 48.2184 40.1914 47.9996 39.666C47.7808 39.1406 47.6677 38.5773 47.6666 38.0082Z" fill="white"/>
</g>
</g>
<defs>
<filter id="filter0_d_3109_16771" x="0" y="-9.66667" width="104" height="104" filterUnits="userSpaceOnUse" color-interpolation-filters="sRGB">
<feFlood flood-opacity="0" result="BackgroundImageFix"/>
<feColorMatrix in="SourceAlpha" type="matrix" values="0 0 0 0 0 0 0 0 0 0 0 0 0 0 0 0 0 0 127 0" result="hardAlpha"/>
<feOffset dy="4.33333"/>
<feGaussianBlur stdDeviation="13"/>
<feComposite in2="hardAlpha" operator="out"/>
<feColorMatrix type="matrix" values="0 0 0 0 0 0 0 0 0 0 0 0 0 0 0 0 0 0 0.3 0"/>
<feBlend mode="normal" in2="BackgroundImageFix" result="effect1_dropShadow_3109_16771"/>
<feBlend mode="normal" in="SourceGraphic" in2="effect1_dropShadow_3109_16771" result="shape"/>
</filter>
<radialGradient id="paint0_radial_3109_16771" cx="0" cy="0" r="1" gradientUnits="userSpaceOnUse" gradientTransform="translate(39.8126 68.0051) rotate(-90) scale(51.5358 47.9324)">
<stop stop-color="#FFDD55"/>
<stop offset="0.1" stop-color="#FFDD55"/>
<stop offset="0.5" stop-color="#FF543E"/>
<stop offset="1" stop-color="#C837AB"/>
</radialGradient>
<radialGradient id="paint1_radial_3109_16771" cx="0" cy="0" r="1" gradientTransform="matrix(4.52159 22.5886 -93.1093 18.6483 17.2897 15.746)" gradientUnits="userSpaceOnUse">
<stop stop-color="#3771C8"/>
<stop offset="0.128" stop-color="#3771C8"/>
<stop offset="1" stop-color="#6600FF" stop-opacity="0"/>
</radialGradient>
<clipPath id="clip0_3109_16771">
<rect width="26" height="26" fill="white" transform="translate(39 25)"/>
</clipPath>
</defs>
</svg>
