<svg width="30" height="30" viewBox="0 0 30 30" fill="none" xmlns="http://www.w3.org/2000/svg">
<path d="M16.984 5.2915C19.233 3.04211 22.8794 3.0422 25.1285 5.2915C27.3779 7.54065 27.3778 11.1868 25.1285 13.436L14.399 24.1655C13.5677 24.9968 12.5262 25.5854 11.386 25.8704C11.3857 25.8705 11.3856 25.8709 11.3858 25.8711C11.386 25.8713 11.3859 25.8717 11.3856 25.8718L8.05815 26.7036C5.43584 27.3598 3.06095 24.9848 3.71526 22.3633C3.71534 22.363 3.71538 22.3626 3.71538 22.3623C3.71538 22.362 3.71543 22.3616 3.71551 22.3613L4.54724 19.0354C4.54736 19.0349 4.54758 19.0345 4.5479 19.0342C4.54823 19.0339 4.54845 19.0335 4.54856 19.033C4.83397 17.8936 5.42252 16.8519 6.25347 16.021L16.984 5.2915Z" fill="#F0F0F0" stroke="black" stroke-width="4"/>
</svg>
