<?xml version="1.0" encoding="UTF-8"?><svg xmlns="http://www.w3.org/2000/svg" width="396" height="396" viewBox="0 0 396 396"><rect width="100%" height="100%" fill="#fff"/><rect x="48" y="48" width="12" height="12" fill="#000"/><rect x="60" y="48" width="12" height="12" fill="#000"/><rect x="72" y="48" width="12" height="12" fill="#000"/><rect x="84" y="48" width="12" height="12" fill="#000"/><rect x="96" y="48" width="12" height="12" fill="#000"/><rect x="108" y="48" width="12" height="12" fill="#000"/><rect x="120" y="48" width="12" height="12" fill="#000"/><rect x="168" y="48" width="12" height="12" fill="#000"/><rect x="204" y="48" width="12" height="12" fill="#000"/><rect x="228" y="48" width="12" height="12" fill="#000"/><rect x="240" y="48" width="12" height="12" fill="#000"/><rect x="264" y="48" width="12" height="12" fill="#000"/><rect x="276" y="48" width="12" height="12" fill="#000"/><rect x="288" y="48" width="12" height="12" fill="#000"/><rect x="300" y="48" width="12" height="12" fill="#000"/><rect x="312" y="48" width="12" height="12" fill="#000"/><rect x="324" y="48" width="12" height="12" fill="#000"/><rect x="336" y="48" width="12" height="12" fill="#000"/><rect x="48" y="60" width="12" height="12" fill="#000"/><rect x="120" y="60" width="12" height="12" fill="#000"/><rect x="144" y="60" width="12" height="12" fill="#000"/><rect x="156" y="60" width="12" height="12" fill="#000"/><rect x="168" y="60" width="12" height="12" fill="#000"/><rect x="204" y="60" width="12" height="12" fill="#000"/><rect x="228" y="60" width="12" height="12" fill="#000"/><rect x="264" y="60" width="12" height="12" fill="#000"/><rect x="336" y="60" width="12" height="12" fill="#000"/><rect x="48" y="72" width="12" height="12" fill="#000"/><rect x="72" y="72" width="12" height="12" fill="#000"/><rect x="84" y="72" width="12" height="12" fill="#000"/><rect x="96" y="72" width="12" height="12" fill="#000"/><rect x="120" y="72" width="12" height="12" fill="#000"/><rect x="144" y="72" width="12" height="12" fill="#000"/><rect x="228" y="72" width="12" height="12" fill="#000"/><rect x="264" y="72" width="12" height="12" fill="#000"/><rect x="288" y="72" width="12" height="12" fill="#000"/><rect x="300" y="72" width="12" height="12" fill="#000"/><rect x="312" y="72" width="12" height="12" fill="#000"/><rect x="336" y="72" width="12" height="12" fill="#000"/><rect x="48" y="84" width="12" height="12" fill="#000"/><rect x="72" y="84" width="12" height="12" fill="#000"/><rect x="84" y="84" width="12" height="12" fill="#000"/><rect x="96" y="84" width="12" height="12" fill="#000"/><rect x="120" y="84" width="12" height="12" fill="#000"/><rect x="156" y="84" width="12" height="12" fill="#000"/><rect x="192" y="84" width="12" height="12" fill="#000"/><rect x="228" y="84" width="12" height="12" fill="#000"/><rect x="240" y="84" width="12" height="12" fill="#000"/><rect x="264" y="84" width="12" height="12" fill="#000"/><rect x="288" y="84" width="12" height="12" fill="#000"/><rect x="300" y="84" width="12" height="12" fill="#000"/><rect x="312" y="84" width="12" height="12" fill="#000"/><rect x="336" y="84" width="12" height="12" fill="#000"/><rect x="48" y="96" width="12" height="12" fill="#000"/><rect x="72" y="96" width="12" height="12" fill="#000"/><rect x="84" y="96" width="12" height="12" fill="#000"/><rect x="96" y="96" width="12" height="12" fill="#000"/><rect x="120" y="96" width="12" height="12" fill="#000"/><rect x="144" y="96" width="12" height="12" fill="#000"/><rect x="156" y="96" width="12" height="12" fill="#000"/><rect x="168" y="96" width="12" height="12" fill="#000"/><rect x="192" y="96" width="12" height="12" fill="#000"/><rect x="228" y="96" width="12" height="12" fill="#000"/><rect x="264" y="96" width="12" height="12" fill="#000"/><rect x="288" y="96" width="12" height="12" fill="#000"/><rect x="300" y="96" width="12" height="12" fill="#000"/><rect x="312" y="96" width="12" height="12" fill="#000"/><rect x="336" y="96" width="12" height="12" fill="#000"/><rect x="48" y="108" width="12" height="12" fill="#000"/><rect x="120" y="108" width="12" height="12" fill="#000"/><rect x="144" y="108" width="12" height="12" fill="#000"/><rect x="168" y="108" width="12" height="12" fill="#000"/><rect x="192" y="108" width="12" height="12" fill="#000"/><rect x="204" y="108" width="12" height="12" fill="#000"/><rect x="216" y="108" width="12" height="12" fill="#000"/><rect x="228" y="108" width="12" height="12" fill="#000"/><rect x="264" y="108" width="12" height="12" fill="#000"/><rect x="336" y="108" width="12" height="12" fill="#000"/><rect x="48" y="120" width="12" height="12" fill="#000"/><rect x="60" y="120" width="12" height="12" fill="#000"/><rect x="72" y="120" width="12" height="12" fill="#000"/><rect x="84" y="120" width="12" height="12" fill="#000"/><rect x="96" y="120" width="12" height="12" fill="#000"/><rect x="108" y="120" width="12" height="12" fill="#000"/><rect x="120" y="120" width="12" height="12" fill="#000"/><rect x="144" y="120" width="12" height="12" fill="#000"/><rect x="168" y="120" width="12" height="12" fill="#000"/><rect x="192" y="120" width="12" height="12" fill="#000"/><rect x="216" y="120" width="12" height="12" fill="#000"/><rect x="240" y="120" width="12" height="12" fill="#000"/><rect x="264" y="120" width="12" height="12" fill="#000"/><rect x="276" y="120" width="12" height="12" fill="#000"/><rect x="288" y="120" width="12" height="12" fill="#000"/><rect x="300" y="120" width="12" height="12" fill="#000"/><rect x="312" y="120" width="12" height="12" fill="#000"/><rect x="324" y="120" width="12" height="12" fill="#000"/><rect x="336" y="120" width="12" height="12" fill="#000"/><rect x="144" y="132" width="12" height="12" fill="#000"/><rect x="168" y="132" width="12" height="12" fill="#000"/><rect x="180" y="132" width="12" height="12" fill="#000"/><rect x="48" y="144" width="12" height="12" fill="#000"/><rect x="60" y="144" width="12" height="12" fill="#000"/><rect x="84" y="144" width="12" height="12" fill="#000"/><rect x="120" y="144" width="12" height="12" fill="#000"/><rect x="132" y="144" width="12" height="12" fill="#000"/><rect x="180" y="144" width="12" height="12" fill="#000"/><rect x="192" y="144" width="12" height="12" fill="#000"/><rect x="204" y="144" width="12" height="12" fill="#000"/><rect x="228" y="144" width="12" height="12" fill="#000"/><rect x="240" y="144" width="12" height="12" fill="#000"/><rect x="264" y="144" width="12" height="12" fill="#000"/><rect x="276" y="144" width="12" height="12" fill="#000"/><rect x="288" y="144" width="12" height="12" fill="#000"/><rect x="312" y="144" width="12" height="12" fill="#000"/><rect x="324" y="144" width="12" height="12" fill="#000"/><rect x="48" y="156" width="12" height="12" fill="#000"/><rect x="72" y="156" width="12" height="12" fill="#000"/><rect x="84" y="156" width="12" height="12" fill="#000"/><rect x="108" y="156" width="12" height="12" fill="#000"/><rect x="156" y="156" width="12" height="12" fill="#000"/><rect x="180" y="156" width="12" height="12" fill="#000"/><rect x="192" y="156" width="12" height="12" fill="#000"/><rect x="204" y="156" width="12" height="12" fill="#000"/><rect x="216" y="156" width="12" height="12" fill="#000"/><rect x="252" y="156" width="12" height="12" fill="#000"/><rect x="264" y="156" width="12" height="12" fill="#000"/><rect x="276" y="156" width="12" height="12" fill="#000"/><rect x="300" y="156" width="12" height="12" fill="#000"/><rect x="336" y="156" width="12" height="12" fill="#000"/><rect x="60" y="168" width="12" height="12" fill="#000"/><rect x="96" y="168" width="12" height="12" fill="#000"/><rect x="108" y="168" width="12" height="12" fill="#000"/><rect x="120" y="168" width="12" height="12" fill="#000"/><rect x="144" y="168" width="12" height="12" fill="#000"/><rect x="180" y="168" width="12" height="12" fill="#000"/><rect x="192" y="168" width="12" height="12" fill="#000"/><rect x="204" y="168" width="12" height="12" fill="#000"/><rect x="216" y="168" width="12" height="12" fill="#000"/><rect x="240" y="168" width="12" height="12" fill="#000"/><rect x="252" y="168" width="12" height="12" fill="#000"/><rect x="276" y="168" width="12" height="12" fill="#000"/><rect x="324" y="168" width="12" height="12" fill="#000"/><rect x="336" y="168" width="12" height="12" fill="#000"/><rect x="48" y="180" width="12" height="12" fill="#000"/><rect x="84" y="180" width="12" height="12" fill="#000"/><rect x="96" y="180" width="12" height="12" fill="#000"/><rect x="132" y="180" width="12" height="12" fill="#000"/><rect x="144" y="180" width="12" height="12" fill="#000"/><rect x="156" y="180" width="12" height="12" fill="#000"/><rect x="168" y="180" width="12" height="12" fill="#000"/><rect x="180" y="180" width="12" height="12" fill="#000"/><rect x="192" y="180" width="12" height="12" fill="#000"/><rect x="204" y="180" width="12" height="12" fill="#000"/><rect x="216" y="180" width="12" height="12" fill="#000"/><rect x="228" y="180" width="12" height="12" fill="#000"/><rect x="264" y="180" width="12" height="12" fill="#000"/><rect x="276" y="180" width="12" height="12" fill="#000"/><rect x="288" y="180" width="12" height="12" fill="#000"/><rect x="300" y="180" width="12" height="12" fill="#000"/><rect x="48" y="192" width="12" height="12" fill="#000"/><rect x="60" y="192" width="12" height="12" fill="#000"/><rect x="72" y="192" width="12" height="12" fill="#000"/><rect x="84" y="192" width="12" height="12" fill="#000"/><rect x="120" y="192" width="12" height="12" fill="#000"/><rect x="168" y="192" width="12" height="12" fill="#000"/><rect x="180" y="192" width="12" height="12" fill="#000"/><rect x="204" y="192" width="12" height="12" fill="#000"/><rect x="216" y="192" width="12" height="12" fill="#000"/><rect x="264" y="192" width="12" height="12" fill="#000"/><rect x="276" y="192" width="12" height="12" fill="#000"/><rect x="300" y="192" width="12" height="12" fill="#000"/><rect x="108" y="204" width="12" height="12" fill="#000"/><rect x="132" y="204" width="12" height="12" fill="#000"/><rect x="180" y="204" width="12" height="12" fill="#000"/><rect x="204" y="204" width="12" height="12" fill="#000"/><rect x="216" y="204" width="12" height="12" fill="#000"/><rect x="240" y="204" width="12" height="12" fill="#000"/><rect x="264" y="204" width="12" height="12" fill="#000"/><rect x="300" y="204" width="12" height="12" fill="#000"/><rect x="336" y="204" width="12" height="12" fill="#000"/><rect x="48" y="216" width="12" height="12" fill="#000"/><rect x="72" y="216" width="12" height="12" fill="#000"/><rect x="84" y="216" width="12" height="12" fill="#000"/><rect x="120" y="216" width="12" height="12" fill="#000"/><rect x="132" y="216" width="12" height="12" fill="#000"/><rect x="180" y="216" width="12" height="12" fill="#000"/><rect x="240" y="216" width="12" height="12" fill="#000"/><rect x="252" y="216" width="12" height="12" fill="#000"/><rect x="264" y="216" width="12" height="12" fill="#000"/><rect x="276" y="216" width="12" height="12" fill="#000"/><rect x="336" y="216" width="12" height="12" fill="#000"/><rect x="60" y="228" width="12" height="12" fill="#000"/><rect x="72" y="228" width="12" height="12" fill="#000"/><rect x="84" y="228" width="12" height="12" fill="#000"/><rect x="96" y="228" width="12" height="12" fill="#000"/><rect x="108" y="228" width="12" height="12" fill="#000"/><rect x="156" y="228" width="12" height="12" fill="#000"/><rect x="168" y="228" width="12" height="12" fill="#000"/><rect x="180" y="228" width="12" height="12" fill="#000"/><rect x="204" y="228" width="12" height="12" fill="#000"/><rect x="240" y="228" width="12" height="12" fill="#000"/><rect x="276" y="228" width="12" height="12" fill="#000"/><rect x="288" y="228" width="12" height="12" fill="#000"/><rect x="300" y="228" width="12" height="12" fill="#000"/><rect x="48" y="240" width="12" height="12" fill="#000"/><rect x="60" y="240" width="12" height="12" fill="#000"/><rect x="120" y="240" width="12" height="12" fill="#000"/><rect x="144" y="240" width="12" height="12" fill="#000"/><rect x="192" y="240" width="12" height="12" fill="#000"/><rect x="216" y="240" width="12" height="12" fill="#000"/><rect x="228" y="240" width="12" height="12" fill="#000"/><rect x="240" y="240" width="12" height="12" fill="#000"/><rect x="252" y="240" width="12" height="12" fill="#000"/><rect x="264" y="240" width="12" height="12" fill="#000"/><rect x="276" y="240" width="12" height="12" fill="#000"/><rect x="288" y="240" width="12" height="12" fill="#000"/><rect x="312" y="240" width="12" height="12" fill="#000"/><rect x="324" y="240" width="12" height="12" fill="#000"/><rect x="336" y="240" width="12" height="12" fill="#000"/><rect x="144" y="252" width="12" height="12" fill="#000"/><rect x="156" y="252" width="12" height="12" fill="#000"/><rect x="192" y="252" width="12" height="12" fill="#000"/><rect x="204" y="252" width="12" height="12" fill="#000"/><rect x="228" y="252" width="12" height="12" fill="#000"/><rect x="240" y="252" width="12" height="12" fill="#000"/><rect x="288" y="252" width="12" height="12" fill="#000"/><rect x="312" y="252" width="12" height="12" fill="#000"/><rect x="336" y="252" width="12" height="12" fill="#000"/><rect x="48" y="264" width="12" height="12" fill="#000"/><rect x="60" y="264" width="12" height="12" fill="#000"/><rect x="72" y="264" width="12" height="12" fill="#000"/><rect x="84" y="264" width="12" height="12" fill="#000"/><rect x="96" y="264" width="12" height="12" fill="#000"/><rect x="108" y="264" width="12" height="12" fill="#000"/><rect x="120" y="264" width="12" height="12" fill="#000"/><rect x="144" y="264" width="12" height="12" fill="#000"/><rect x="168" y="264" width="12" height="12" fill="#000"/><rect x="180" y="264" width="12" height="12" fill="#000"/><rect x="192" y="264" width="12" height="12" fill="#000"/><rect x="216" y="264" width="12" height="12" fill="#000"/><rect x="228" y="264" width="12" height="12" fill="#000"/><rect x="240" y="264" width="12" height="12" fill="#000"/><rect x="264" y="264" width="12" height="12" fill="#000"/><rect x="288" y="264" width="12" height="12" fill="#000"/><rect x="300" y="264" width="12" height="12" fill="#000"/><rect x="324" y="264" width="12" height="12" fill="#000"/><rect x="336" y="264" width="12" height="12" fill="#000"/><rect x="48" y="276" width="12" height="12" fill="#000"/><rect x="120" y="276" width="12" height="12" fill="#000"/><rect x="156" y="276" width="12" height="12" fill="#000"/><rect x="192" y="276" width="12" height="12" fill="#000"/><rect x="216" y="276" width="12" height="12" fill="#000"/><rect x="228" y="276" width="12" height="12" fill="#000"/><rect x="240" y="276" width="12" height="12" fill="#000"/><rect x="288" y="276" width="12" height="12" fill="#000"/><rect x="300" y="276" width="12" height="12" fill="#000"/><rect x="312" y="276" width="12" height="12" fill="#000"/><rect x="324" y="276" width="12" height="12" fill="#000"/><rect x="336" y="276" width="12" height="12" fill="#000"/><rect x="48" y="288" width="12" height="12" fill="#000"/><rect x="72" y="288" width="12" height="12" fill="#000"/><rect x="84" y="288" width="12" height="12" fill="#000"/><rect x="96" y="288" width="12" height="12" fill="#000"/><rect x="120" y="288" width="12" height="12" fill="#000"/><rect x="156" y="288" width="12" height="12" fill="#000"/><rect x="168" y="288" width="12" height="12" fill="#000"/><rect x="240" y="288" width="12" height="12" fill="#000"/><rect x="252" y="288" width="12" height="12" fill="#000"/><rect x="264" y="288" width="12" height="12" fill="#000"/><rect x="276" y="288" width="12" height="12" fill="#000"/><rect x="288" y="288" width="12" height="12" fill="#000"/><rect x="336" y="288" width="12" height="12" fill="#000"/><rect x="48" y="300" width="12" height="12" fill="#000"/><rect x="72" y="300" width="12" height="12" fill="#000"/><rect x="84" y="300" width="12" height="12" fill="#000"/><rect x="96" y="300" width="12" height="12" fill="#000"/><rect x="120" y="300" width="12" height="12" fill="#000"/><rect x="144" y="300" width="12" height="12" fill="#000"/><rect x="156" y="300" width="12" height="12" fill="#000"/><rect x="168" y="300" width="12" height="12" fill="#000"/><rect x="180" y="300" width="12" height="12" fill="#000"/><rect x="228" y="300" width="12" height="12" fill="#000"/><rect x="252" y="300" width="12" height="12" fill="#000"/><rect x="288" y="300" width="12" height="12" fill="#000"/><rect x="312" y="300" width="12" height="12" fill="#000"/><rect x="48" y="312" width="12" height="12" fill="#000"/><rect x="72" y="312" width="12" height="12" fill="#000"/><rect x="84" y="312" width="12" height="12" fill="#000"/><rect x="96" y="312" width="12" height="12" fill="#000"/><rect x="120" y="312" width="12" height="12" fill="#000"/><rect x="240" y="312" width="12" height="12" fill="#000"/><rect x="252" y="312" width="12" height="12" fill="#000"/><rect x="276" y="312" width="12" height="12" fill="#000"/><rect x="288" y="312" width="12" height="12" fill="#000"/><rect x="300" y="312" width="12" height="12" fill="#000"/><rect x="312" y="312" width="12" height="12" fill="#000"/><rect x="336" y="312" width="12" height="12" fill="#000"/><rect x="48" y="324" width="12" height="12" fill="#000"/><rect x="120" y="324" width="12" height="12" fill="#000"/><rect x="144" y="324" width="12" height="12" fill="#000"/><rect x="156" y="324" width="12" height="12" fill="#000"/><rect x="216" y="324" width="12" height="12" fill="#000"/><rect x="240" y="324" width="12" height="12" fill="#000"/><rect x="252" y="324" width="12" height="12" fill="#000"/><rect x="288" y="324" width="12" height="12" fill="#000"/><rect x="300" y="324" width="12" height="12" fill="#000"/><rect x="48" y="336" width="12" height="12" fill="#000"/><rect x="60" y="336" width="12" height="12" fill="#000"/><rect x="72" y="336" width="12" height="12" fill="#000"/><rect x="84" y="336" width="12" height="12" fill="#000"/><rect x="96" y="336" width="12" height="12" fill="#000"/><rect x="108" y="336" width="12" height="12" fill="#000"/><rect x="120" y="336" width="12" height="12" fill="#000"/><rect x="144" y="336" width="12" height="12" fill="#000"/><rect x="156" y="336" width="12" height="12" fill="#000"/><rect x="168" y="336" width="12" height="12" fill="#000"/><rect x="192" y="336" width="12" height="12" fill="#000"/><rect x="240" y="336" width="12" height="12" fill="#000"/><rect x="288" y="336" width="12" height="12" fill="#000"/><rect x="300" y="336" width="12" height="12" fill="#000"/><rect x="324" y="336" width="12" height="12" fill="#000"/><rect x="336" y="336" width="12" height="12" fill="#000"/></svg>