<svg width="16" height="16" viewBox="0 0 16 16" fill="none" xmlns="http://www.w3.org/2000/svg">
<g id="SealCheck" clip-path="url(#clip0_0_66)">
<g id="Vector">
</g>
<path id="Vector_2" d="M14.1163 6.42625C13.8807 6.18 13.6369 5.92625 13.545 5.70312C13.46 5.49875 13.455 5.16 13.45 4.83187C13.4407 4.22187 13.4307 3.53062 12.95 3.05C12.4694 2.56937 11.7782 2.55937 11.1682 2.55C10.84 2.545 10.5013 2.54 10.2969 2.455C10.0744 2.36312 9.82003 2.11937 9.57378 1.88375C9.14253 1.46937 8.65253 0.999999 8.00003 0.999999C7.34753 0.999999 6.85816 1.46937 6.42628 1.88375C6.18003 2.11937 5.92628 2.36312 5.70316 2.455C5.50003 2.54 5.16003 2.545 4.83191 2.55C4.22191 2.55937 3.53066 2.56937 3.05003 3.05C2.56941 3.53062 2.56253 4.22187 2.55003 4.83187C2.54503 5.16 2.54003 5.49875 2.45503 5.70312C2.36316 5.92562 2.11941 6.18 1.88378 6.42625C1.46941 6.8575 1.00003 7.3475 1.00003 8C1.00003 8.6525 1.46941 9.14187 1.88378 9.57375C2.11941 9.82 2.36316 10.0737 2.45503 10.2969C2.54003 10.5012 2.54503 10.84 2.55003 11.1681C2.55941 11.7781 2.56941 12.4694 3.05003 12.95C3.53066 13.4306 4.22191 13.4406 4.83191 13.45C5.16003 13.455 5.49878 13.46 5.70316 13.545C5.92566 13.6369 6.18003 13.8806 6.42628 14.1162C6.85753 14.5306 7.34753 15 8.00003 15C8.65253 15 9.14191 14.5306 9.57378 14.1162C9.82003 13.8806 10.0738 13.6369 10.2969 13.545C10.5013 13.46 10.84 13.455 11.1682 13.45C11.7782 13.4406 12.4694 13.4306 12.95 12.95C13.4307 12.4694 13.4407 11.7781 13.45 11.1681C13.455 10.84 13.46 10.5012 13.545 10.2969C13.6369 10.0744 13.8807 9.82 14.1163 9.57375C14.5307 9.1425 15 8.6525 15 8C15 7.3475 14.5307 6.85812 14.1163 6.42625ZM10.8538 6.85375L7.35378 10.3537C7.30735 10.4002 7.2522 10.4371 7.1915 10.4623C7.1308 10.4874 7.06574 10.5004 7.00003 10.5004C6.93432 10.5004 6.86926 10.4874 6.80856 10.4623C6.74786 10.4371 6.69272 10.4002 6.64628 10.3537L5.14628 8.85375C5.05246 8.75993 4.99975 8.63268 4.99975 8.5C4.99975 8.36732 5.05246 8.24007 5.14628 8.14625C5.2401 8.05243 5.36735 7.99972 5.50003 7.99972C5.63271 7.99972 5.75996 8.05243 5.85378 8.14625L7.00003 9.29312L10.1463 6.14625C10.1927 6.09979 10.2479 6.06294 10.3086 6.0378C10.3693 6.01266 10.4343 5.99972 10.5 5.99972C10.5657 5.99972 10.6308 6.01266 10.6915 6.0378C10.7522 6.06294 10.8073 6.09979 10.8538 6.14625C10.9002 6.1927 10.9371 6.24785 10.9622 6.30855C10.9874 6.36925 11.0003 6.4343 11.0003 6.5C11.0003 6.5657 10.9874 6.63075 10.9622 6.69145C10.9371 6.75214 10.9002 6.80729 10.8538 6.85375Z" fill="#0E8345"/>
</g>
<defs>
<clipPath id="clip0_0_66">
<rect width="16" height="16" fill="white"/>
</clipPath>
</defs>
</svg>
